<?xml version="1.0" encoding="UTF-8"?>
<svg xmlns="http://www.w3.org/2000/svg" width="100" height="106" viewBox="0 0 100 106" fill="none">
  <path d="M36.3447 5.14944L76.1263 71.8208L18.6319 80.7398L36.3447 5.14944Z" fill="#C0FAEA"></path>
  <path d="M82.8347 33.5766L47.1102 87.0724L18.8131 39.8438L82.8347 33.5766Z" fill="#FBC8F7"></path>
  <g clip-path="url(#clip0_0_321)">
    <path d="M66.65 45.177L50.0816 28.6086C48.3688 26.8957 45.5815 26.8956 43.8685 28.6086C42.3287 30.1483 42.196 32.4966 43.3332 34.1735L43.3101 34.2888C42.1156 40.262 39.2075 45.6959 34.9 50.0034L27.3005 57.6029C25.5835 59.32 25.5832 62.0989 27.3005 63.816L31.4425 67.9579C33.1593 69.6749 35.9384 69.675 37.6555 67.9579L38.6911 66.9224L45.9397 74.171C47.6567 75.8881 50.4356 75.8882 52.1527 74.171C53.8657 72.4581 53.8657 69.6709 52.1527 67.958L49.0461 64.8515L50.0817 63.816C51.7987 62.0991 51.7989 59.3202 50.0817 57.603L49.378 56.8992C52.8398 54.4754 56.7713 52.788 60.9698 51.9483L61.0866 51.9249C62.8008 53.0823 65.1437 52.8962 66.65 51.3899H66.6501C68.3628 49.6771 68.3628 46.89 66.65 45.177ZM35.5845 65.887C35.0123 66.4591 34.0857 66.4592 33.5134 65.8869L29.3715 61.7449C28.7991 61.1724 28.7991 60.2462 29.3715 59.6739L36.62 52.4252L42.8331 58.6383C42.1239 59.3475 36.3112 65.1602 35.5845 65.887ZM50.0816 70.0289C50.6525 70.5998 50.6525 71.5289 50.0816 72.0999C49.5107 72.6708 48.5815 72.6708 48.0106 72.0999L40.762 64.8513L42.8331 62.7803L50.0816 70.0289ZM44.9041 60.7093C45.3443 60.2691 46.0033 59.5948 47.0433 58.7065L48.0106 59.6739C48.583 60.2462 48.583 61.1724 48.0106 61.7449L46.975 62.7804L44.9041 60.7093ZM44.9663 56.6296L38.6286 50.2919C42.025 46.3702 44.4572 41.7408 45.7584 36.7115L58.5467 49.4998C53.5174 50.8009 48.8881 53.2332 44.9663 56.6296ZM64.5787 49.3188C64.0064 49.8911 63.0801 49.8911 62.5077 49.3188L45.9395 32.7505C45.3671 32.1781 45.3671 31.2519 45.9395 30.6796C46.5119 30.1072 47.4382 30.1072 48.0106 30.6796L64.5787 47.2477C65.1496 47.8187 65.1496 48.7477 64.5787 49.3188Z" fill="#343434"></path>
    <path d="M37.6555 57.6029C37.0837 57.031 36.1563 57.031 35.5845 57.6029L33.5135 59.6739C32.9416 60.2457 32.9416 61.173 33.5135 61.7449C34.0852 62.3167 35.0127 62.3167 35.5845 61.7449L37.6555 59.6739C38.2273 59.102 38.2273 58.1747 37.6555 57.6029Z" fill="#343434"></path>
    <path d="M56.8076 25.4589C55.9988 25.4589 55.3431 26.1145 55.3431 26.9233V29.8522C55.3431 30.661 55.9988 31.3167 56.8076 31.3167C57.6163 31.3167 58.272 30.661 58.272 29.8522V26.9233C58.272 26.1145 57.6163 25.4589 56.8076 25.4589Z" fill="#343434"></path>
    <path d="M68.5232 37.1743H65.5943C64.7855 37.1743 64.1298 37.83 64.1298 38.6388C64.1298 39.4476 64.7855 40.1032 65.5943 40.1032H68.5232C69.332 40.1032 69.9876 39.4476 69.9876 38.6388C69.9876 37.83 69.3319 37.1743 68.5232 37.1743Z" fill="#343434"></path>
    <path d="M66.6297 28.8165C66.058 28.2446 65.1306 28.2446 64.5588 28.8165L61.6298 31.7454C61.058 32.3173 61.058 33.2445 61.6298 33.8164C62.2016 34.3882 63.129 34.3883 63.7008 33.8164L66.6297 30.8875C67.2016 30.3156 67.2016 29.3885 66.6297 28.8165Z" fill="#343434"></path>
  </g>
  <defs>
    <clipPath id="clip0_0_321">
      <rect width="50" height="50" fill="white" transform="translate(23 25.4589)"></rect>
    </clipPath>
  </defs>
</svg>
