<?xml version="1.0" encoding="UTF-8"?>
<svg xmlns="http://www.w3.org/2000/svg" width="806" height="764" viewBox="0 0 806 764" fill="none">
  <path d="M0 6.00001C0 2.6863 2.68629 0 6 0H808V750H5.99999C2.68628 750 0 747.314 0 744V6.00001Z" fill="#FCFCFC"></path>
  <path d="M0 6.00001C0 2.6863 2.68629 0 6 0H210V750H6C2.68629 750 0 747.314 0 744V6.00001Z" fill="white"></path>
  <path d="M41.02 69.46H37.06C36.4 70.92 35.16 71.96 33.5 71.96C31.08 71.96 29.52 69.84 29.52 67.56C29.52 65.28 31.08 63.24 33.48 63.24C35.14 63.24 36.48 64.3 37.06 65.82H41.02C40.88 64.96 40.5 64.12 40.02 63.4C38.54 61.16 36.18 59.92 33.5 59.92C29.2 59.92 25.74 63.24 25.74 67.58C25.74 71.92 29.24 75.28 33.54 75.28C37.12 75.28 40.16 72.96 41.02 69.46Z" fill="#001133"></path>
  <path d="M53.8806 69.44C53.8806 66.04 51.3006 63.54 47.9006 63.54C44.5006 63.54 41.9206 66.04 41.9206 69.44C41.9206 72.84 44.5006 75.34 47.9006 75.34C51.3006 75.34 53.8806 72.84 53.8806 69.44ZM50.5606 69.44C50.5606 70.94 49.4406 72.24 47.9006 72.24C46.3606 72.24 45.2406 70.94 45.2406 69.44C45.2406 67.94 46.3606 66.64 47.9006 66.64C49.4406 66.64 50.5606 67.94 50.5606 69.44Z" fill="#001133"></path>
  <path d="M65.6409 75V68.06C65.6409 66.76 65.4209 65.36 64.3609 64.48C63.6409 63.88 62.4609 63.52 61.5209 63.52C60.1809 63.52 59.2009 63.94 58.5009 65.08H58.4609V63.9H55.3609V75H58.6809V68.96C58.6809 67.64 59.0409 66.64 60.5809 66.64C62.0809 66.64 62.3209 67.7 62.3209 68.94V75H65.6409Z" fill="#001133"></path>
  <path d="M73.1776 66.42V63.9H71.5776V60.2H68.2576V63.9H66.6176V66.42H68.2576V75H71.5776V66.42H73.1776Z" fill="#001133"></path>
  <path d="M84.9964 69.58C84.9964 66.24 82.5364 63.52 79.1364 63.52C75.8764 63.52 73.3164 66.26 73.3164 69.48C73.3164 72.72 75.9564 75.36 79.1964 75.36C81.6964 75.36 83.6564 73.74 84.6164 71.52H81.2164C80.6764 72.2 80.0964 72.56 79.1964 72.56C77.8964 72.56 76.7964 71.78 76.5964 70.46H84.9164C84.9764 70.16 84.9964 69.88 84.9964 69.58ZM81.6764 68.22H76.6364C76.8964 67.02 77.9564 66.32 79.1564 66.32C80.3564 66.32 81.4164 67.02 81.6764 68.22Z" fill="#001133"></path>
  <path d="M96.7261 75V68.06C96.7261 66.76 96.5061 65.36 95.4461 64.48C94.7261 63.88 93.5461 63.52 92.6061 63.52C91.2661 63.52 90.2861 63.94 89.5861 65.08H89.5461V63.9H86.4461V75H89.7661V68.96C89.7661 67.64 90.1261 66.64 91.6661 66.64C93.1661 66.64 93.4061 67.7 93.4061 68.94V75H96.7261Z" fill="#001133"></path>
  <path d="M104.263 66.42V63.9H102.663V60.2H99.3428V63.9H97.7028V66.42H99.3428V75H102.663V66.42H104.263Z" fill="#001133"></path>
  <path d="M108.975 75V71.6H105.515V75H108.975Z" fill="#001133"></path>
  <path d="M124.964 75L119.084 60.2H116.104L110.164 75H114.224L115.004 72.86H120.144L120.864 75H124.964ZM119.144 69.86H116.044L117.564 64.8H117.604H117.624L119.144 69.86Z" fill="#001133"></path>
  <path d="M129.86 75V60.2H126.08V75H129.86Z" fill="#001133"></path>
  <rect x="25" y="126" width="60" height="10" fill="#E7E9EC"></rect>
  <rect x="25" y="166" width="47" height="10" fill="#E7E9EC"></rect>
  <rect x="25" y="146" width="83" height="10" fill="#E7E9EC"></rect>
  <rect x="25" y="346" width="60" height="10" fill="#E7E9EC"></rect>
  <rect x="25" y="386" width="47" height="10" fill="#E7E9EC"></rect>
  <rect x="25" y="366" width="83" height="10" fill="#E7E9EC"></rect>
  <rect x="25" y="226" width="60" height="10" fill="#E7E9EC"></rect>
  <rect x="25" y="266" width="47" height="10" fill="#E7E9EC"></rect>
  <rect x="25" y="246" width="83" height="10" fill="#E7E9EC"></rect>
  <rect x="25" y="286" width="24" height="10" fill="#E7E9EC"></rect>
  <rect x="25" y="566" width="34" height="10" fill="#E7E9EC"></rect>
  <rect x="25" y="606" width="60" height="10" fill="#E7E9EC"></rect>
  <rect x="25" y="586" width="24" height="10" fill="#E7E9EC"></rect>
  <rect x="25" y="626" width="24" height="10" fill="#E7E9EC"></rect>
  <rect x="25" y="446" width="60" height="10" fill="#E7E9EC"></rect>
  <rect x="25" y="486" width="47" height="10" fill="#E7E9EC"></rect>
  <rect x="25" y="466" width="83" height="10" fill="#E7E9EC"></rect>
  <rect x="25" y="506" width="24" height="10" fill="#E7E9EC"></rect>
  <path d="M0.115845 6C0.115845 2.68629 2.80214 0 6.11584 0L808.116 0V30H0.115845L0.115845 6Z" fill="#242938"></path>
  <circle cx="16.5" cy="14.965" r="3.5" fill="#FCFCFC"></circle>
  <circle cx="29.5" cy="14.965" r="3.5" fill="#FCFCFC"></circle>
  <circle cx="42.5" cy="14.5" r="3.5" fill="#FCFCFC"></circle>
  <g filter="url(#filter0_d_0_163)">
    <rect x="168" y="226" width="340" height="75" rx="4" fill="white"></rect>
  </g>
  <path d="M198.589 230.59L231.912 276.241L180.663 284.191L198.589 230.59Z" fill="#CBFFF1"></path>
  <path d="M235.706 246.971L208.231 288.113L186.469 251.79L235.706 246.971Z" fill="#FFDAFC"></path>
  <g clip-path="url(#clip0_0_163)">
    <path d="M225 249.103V247.052H208.525V245H206.475V247.052H190V249.103H192.052V267.836H190V269.886H206.475V277.949H200.687V280H214.313V277.949H208.525V269.886H225V267.836H222.948V249.103H225ZM220.897 267.836H194.103V249.103H220.897V267.836Z" fill="black"></path>
    <path d="M197.582 264.171L204.24 257.513L208.349 264.412L216.792 255.968V259.041H218.843V252.467H212.269V254.518H215.342L208.762 261.098L204.653 254.2L196.132 262.721L197.582 264.171Z" fill="black"></path>
  </g>
  <rect x="262" y="254" width="150" height="20" rx="4" fill="#F2F2F2"></rect>
  <rect x="432" y="254" width="50" height="20" rx="4" fill="#F2F2F2"></rect>
  <g filter="url(#filter1_d_0_163)">
    <rect x="168" y="579" width="340" height="75" rx="4" fill="white"></rect>
  </g>
  <path d="M198.589 583.59L231.912 629.241L180.663 637.191L198.589 583.59Z" fill="#CBFFF1"></path>
  <path d="M235.706 599.971L208.231 641.113L186.469 604.79L235.706 599.971Z" fill="#FFDAFC"></path>
  <g clip-path="url(#clip1_0_163)">
    <path d="M220.57 612.165L207.828 599.422C206.51 598.105 204.367 598.105 203.049 599.422C201.865 600.607 201.763 602.413 202.638 603.702L202.62 603.791C201.701 608.385 199.465 612.564 196.152 615.876L190.307 621.721C188.987 623.042 188.987 625.179 190.307 626.499L193.493 629.685C194.813 631.005 196.951 631.005 198.271 629.685L199.068 628.888L204.642 634.463C205.963 635.784 208.1 635.784 209.42 634.463C210.738 633.146 210.738 631.002 209.42 629.685L207.031 627.296L207.828 626.499C209.148 625.179 209.148 623.042 207.828 621.721L207.287 621.18C209.949 619.316 212.973 618.018 216.202 617.372L216.291 617.354C217.61 618.244 219.411 618.101 220.57 616.943H220.57C221.887 615.626 221.887 613.482 220.57 612.165ZM196.678 628.092C196.238 628.532 195.526 628.532 195.086 628.092L191.9 624.907C191.46 624.466 191.46 623.754 191.9 623.314L197.475 617.739L202.253 622.517C201.708 623.063 197.237 627.533 196.678 628.092ZM207.828 631.278C208.267 631.717 208.267 632.431 207.828 632.87C207.389 633.309 206.674 633.309 206.235 632.87L200.66 627.296L202.253 625.703L207.828 631.278ZM203.846 624.11C204.184 623.772 204.691 623.253 205.491 622.57L206.235 623.314C206.675 623.754 206.675 624.466 206.235 624.907L205.439 625.703L203.846 624.11ZM203.894 620.973L199.02 616.098C201.632 613.082 203.502 609.522 204.503 605.654L214.338 615.489C210.47 616.49 206.91 618.36 203.894 620.973ZM218.977 615.35C218.537 615.79 217.824 615.79 217.384 615.35L204.642 602.608C204.202 602.168 204.202 601.455 204.642 601.015C205.082 600.575 205.795 600.575 206.235 601.015L218.977 613.757C219.416 614.196 219.416 614.911 218.977 615.35Z" fill="#343434"></path>
    <path d="M198.271 621.721C197.831 621.281 197.118 621.281 196.678 621.721L195.086 623.314C194.646 623.754 194.646 624.467 195.086 624.906C195.525 625.346 196.239 625.346 196.678 624.906L198.271 623.314C198.711 622.874 198.711 622.161 198.271 621.721Z" fill="#343434"></path>
    <path d="M213 597C212.378 597 211.874 597.504 211.874 598.126V600.379C211.874 601.001 212.378 601.505 213 601.505C213.622 601.505 214.127 601.001 214.127 600.379V598.126C214.127 597.504 213.622 597 213 597Z" fill="#343434"></path>
    <path d="M222.011 606.01H219.758C219.136 606.01 218.632 606.514 218.632 607.136C218.632 607.758 219.136 608.263 219.758 608.263H222.011C222.633 608.263 223.137 607.758 223.137 607.136C223.137 606.514 222.632 606.01 222.011 606.01Z" fill="#343434"></path>
    <path d="M220.554 599.582C220.115 599.142 219.401 599.142 218.962 599.582L216.709 601.835C216.269 602.275 216.269 602.988 216.709 603.428C217.149 603.867 217.862 603.867 218.302 603.428L220.554 601.175C220.994 600.735 220.994 600.022 220.554 599.582Z" fill="#343434"></path>
  </g>
  <rect x="262" y="607" width="150" height="20" rx="4" fill="#F2F2F2"></rect>
  <rect x="432" y="607" width="50" height="20" rx="4" fill="#F2F2F2"></rect>
  <g filter="url(#filter2_d_0_163)">
    <rect x="562" y="436" width="340" height="75" rx="4" fill="white"></rect>
  </g>
  <path d="M592.589 440.59L625.912 486.241L574.663 494.191L592.589 440.59Z" fill="#CBFFF1"></path>
  <path d="M629.706 456.971L602.231 498.113L580.469 461.79L629.706 456.971Z" fill="#FFDAFC"></path>
  <g clip-path="url(#clip2_0_163)">
    <path d="M614.57 469.165L601.828 456.422C600.51 455.105 598.367 455.105 597.049 456.422C595.865 457.607 595.763 459.413 596.638 460.702L596.62 460.791C595.701 465.385 593.465 469.564 590.152 472.876L584.307 478.721C582.987 480.042 582.987 482.179 584.307 483.499L587.493 486.685C588.813 488.005 590.951 488.005 592.271 486.685L593.068 485.888L598.642 491.463C599.963 492.784 602.1 492.784 603.42 491.463C604.738 490.146 604.738 488.002 603.42 486.685L601.031 484.296L601.828 483.499C603.148 482.179 603.148 480.042 601.828 478.721L601.286 478.18C603.949 476.316 606.972 475.018 610.201 474.372L610.291 474.354C611.61 475.244 613.411 475.101 614.57 473.943H614.57C615.887 472.626 615.887 470.482 614.57 469.165ZM590.678 485.092C590.238 485.532 589.526 485.532 589.086 485.092L585.9 481.907C585.46 481.466 585.46 480.754 585.9 480.314L591.475 474.739L596.253 479.517C595.708 480.063 591.237 484.533 590.678 485.092ZM601.828 488.278C602.267 488.717 602.267 489.431 601.828 489.87C601.389 490.309 600.674 490.309 600.235 489.87L594.66 484.296L596.253 482.703L601.828 488.278ZM597.846 481.11C598.184 480.772 598.691 480.253 599.491 479.57L600.235 480.314C600.675 480.754 600.675 481.466 600.235 481.907L599.438 482.703L597.846 481.11ZM597.894 477.973L593.019 473.098C595.632 470.082 597.502 466.522 598.503 462.654L608.338 472.489C604.47 473.49 600.91 475.36 597.894 477.973ZM612.977 472.35C612.537 472.79 611.824 472.79 611.384 472.35L598.642 459.608C598.202 459.168 598.202 458.455 598.642 458.015C599.082 457.575 599.795 457.575 600.235 458.015L612.977 470.757C613.416 471.196 613.416 471.911 612.977 472.35Z" fill="#343434"></path>
    <path d="M592.271 478.721C591.831 478.281 591.118 478.281 590.678 478.721L589.086 480.314C588.646 480.754 588.646 481.467 589.086 481.906C589.525 482.346 590.239 482.346 590.678 481.906L592.271 480.314C592.711 479.874 592.711 479.161 592.271 478.721Z" fill="#343434"></path>
    <path d="M607 454C606.378 454 605.874 454.504 605.874 455.126V457.379C605.874 458.001 606.378 458.505 607 458.505C607.622 458.505 608.127 458.001 608.127 457.379V455.126C608.127 454.504 607.622 454 607 454Z" fill="#343434"></path>
    <path d="M616.011 463.01H613.758C613.136 463.01 612.632 463.514 612.632 464.136C612.632 464.758 613.136 465.263 613.758 465.263H616.011C616.633 465.263 617.137 464.758 617.137 464.136C617.137 463.514 616.632 463.01 616.011 463.01Z" fill="#343434"></path>
    <path d="M614.554 456.582C614.115 456.142 613.401 456.142 612.962 456.582L610.709 458.835C610.269 459.275 610.269 459.988 610.709 460.428C611.149 460.867 611.862 460.867 612.302 460.428L614.554 458.175C614.994 457.735 614.994 457.022 614.554 456.582Z" fill="#343434"></path>
  </g>
  <rect x="656" y="464" width="150" height="20" rx="4" fill="#F2F2F2"></rect>
  <g filter="url(#filter3_d_0_163)">
    <rect x="168" y="126" width="340" height="75" rx="4" fill="white"></rect>
  </g>
  <path d="M198.589 130.59L231.912 176.241L180.663 184.191L198.589 130.59Z" fill="#CBFFF1"></path>
  <path d="M235.706 146.971L208.231 188.113L186.469 151.79L235.706 146.971Z" fill="#FFDAFC"></path>
  <g clip-path="url(#clip3_0_163)">
    <path d="M220.57 159.165L207.828 146.422C206.51 145.105 204.367 145.105 203.049 146.422C201.865 147.607 201.763 149.413 202.638 150.702L202.62 150.791C201.701 155.385 199.465 159.564 196.152 162.876L190.307 168.721C188.987 170.042 188.987 172.179 190.307 173.499L193.493 176.685C194.813 178.005 196.951 178.005 198.271 176.685L199.068 175.888L204.642 181.463C205.963 182.784 208.1 182.784 209.42 181.463C210.738 180.146 210.738 178.002 209.42 176.685L207.031 174.296L207.828 173.499C209.148 172.179 209.148 170.042 207.828 168.721L207.287 168.18C209.949 166.316 212.973 165.018 216.202 164.372L216.291 164.354C217.61 165.244 219.411 165.101 220.57 163.943H220.57C221.887 162.626 221.887 160.482 220.57 159.165ZM196.678 175.092C196.238 175.532 195.526 175.532 195.086 175.092L191.9 171.907C191.46 171.466 191.46 170.754 191.9 170.314L197.475 164.739L202.253 169.517C201.708 170.063 197.237 174.533 196.678 175.092ZM207.828 178.278C208.267 178.717 208.267 179.431 207.828 179.87C207.389 180.309 206.674 180.309 206.235 179.87L200.66 174.296L202.253 172.703L207.828 178.278ZM203.846 171.11C204.184 170.772 204.691 170.253 205.491 169.57L206.235 170.314C206.675 170.754 206.675 171.466 206.235 171.907L205.439 172.703L203.846 171.11ZM203.894 167.973L199.02 163.098C201.632 160.082 203.502 156.522 204.503 152.654L214.338 162.489C210.47 163.49 206.91 165.36 203.894 167.973ZM218.977 162.35C218.537 162.79 217.824 162.79 217.384 162.35L204.642 149.608C204.202 149.168 204.202 148.455 204.642 148.015C205.082 147.575 205.795 147.575 206.235 148.015L218.977 160.757C219.416 161.196 219.416 161.911 218.977 162.35Z" fill="#343434"></path>
    <path d="M198.271 168.721C197.831 168.281 197.118 168.281 196.678 168.721L195.086 170.314C194.646 170.754 194.646 171.467 195.086 171.906C195.525 172.346 196.239 172.346 196.678 171.906L198.271 170.314C198.711 169.874 198.711 169.161 198.271 168.721Z" fill="#343434"></path>
    <path d="M213 144C212.378 144 211.874 144.504 211.874 145.126V147.379C211.874 148.001 212.378 148.505 213 148.505C213.622 148.505 214.127 148.001 214.127 147.379V145.126C214.127 144.504 213.622 144 213 144Z" fill="#343434"></path>
    <path d="M222.011 153.01H219.758C219.136 153.01 218.632 153.514 218.632 154.136C218.632 154.758 219.136 155.263 219.758 155.263H222.011C222.633 155.263 223.137 154.758 223.137 154.136C223.137 153.514 222.632 153.01 222.011 153.01Z" fill="#343434"></path>
    <path d="M220.554 146.582C220.115 146.142 219.401 146.142 218.962 146.582L216.709 148.835C216.269 149.275 216.269 149.988 216.709 150.428C217.149 150.867 217.862 150.867 218.302 150.428L220.554 148.175C220.994 147.735 220.994 147.022 220.554 146.582Z" fill="#343434"></path>
  </g>
  <rect x="262" y="154" width="150" height="20" rx="4" fill="#F2F2F2"></rect>
  <rect x="432" y="154" width="50" height="20" rx="4" fill="#F2F2F2"></rect>
  <g filter="url(#filter4_d_0_163)">
    <rect x="168" y="479" width="340" height="75" rx="4" fill="white"></rect>
  </g>
  <path d="M198.589 483.59L231.912 529.241L180.663 537.191L198.589 483.59Z" fill="#CBFFF1"></path>
  <path d="M235.706 499.971L208.231 541.113L186.469 504.79L235.706 499.971Z" fill="#FFDAFC"></path>
  <g clip-path="url(#clip4_0_163)">
    <path d="M223 502.986V500.994H206.996V499H205.004V500.994H189V502.986H190.994V521.183H189V523.175H205.004V531.008H199.381V533H212.618V531.008H206.996V523.175H223V521.183H221.006V502.986H223ZM219.014 521.183H192.986V502.986H219.014V521.183Z" fill="black"></path>
    <path d="M196.365 517.623L202.833 511.156L206.825 517.857L215.027 509.655V512.64H217.019V506.254H210.633V508.246H213.618L207.226 514.638L203.235 507.937L194.957 516.215L196.365 517.623Z" fill="black"></path>
  </g>
  <rect x="262" y="507" width="150" height="20" rx="4" fill="#F2F2F2"></rect>
  <rect x="432" y="507" width="50" height="20" rx="4" fill="#F2F2F2"></rect>
  <g filter="url(#filter5_d_0_163)">
    <rect x="276" y="330" width="340" height="75" rx="4" fill="white"></rect>
  </g>
  <path d="M306.589 334.59L339.912 380.241L288.663 388.191L306.589 334.59Z" fill="#CBFFF1"></path>
  <path d="M343.706 350.971L316.231 392.113L294.469 355.79L343.706 350.971Z" fill="#FFDAFC"></path>
  <g clip-path="url(#clip5_0_163)">
    <path d="M327.434 348H310.66C310.66 348 310.66 348 310.66 348C308.213 348 306.133 349.978 306.133 352.453V365.887H298.34H298.34C296.498 365.887 295 367.385 295 369.227V378.133C295 378.748 295.498 379.246 296.113 379.246H299.453V381.547C299.453 384.002 301.451 386 303.906 386H325.133C326.62 386 328.027 385.424 329.097 384.378C330.178 383.322 330.773 381.921 330.773 380.434V354.68H331.887C332.502 354.68 333 354.181 333 353.566C333 350.497 330.503 348 327.434 348ZM327.434 350.227C328.885 350.227 330.123 351.157 330.583 352.453H315.113C315.113 351.643 314.896 350.882 314.516 350.227H327.434ZM297.227 369.227C297.227 368.613 297.726 368.113 298.34 368.113C298.954 368.113 299.453 368.613 299.453 369.227V377.02H297.227V369.227ZM301.68 381.547V369.227C301.68 368.836 301.612 368.462 301.488 368.113H306.133V381.547C306.133 382.775 305.134 383.773 303.906 383.773C302.678 383.773 301.68 382.775 301.68 381.547ZM328.547 380.434C328.547 382.244 326.983 383.773 325.133 383.773H307.76C308.14 383.118 308.359 382.358 308.359 381.547C308.359 380.726 308.359 353.274 308.359 352.453C308.359 351.246 309.413 350.227 310.66 350.227C311.888 350.227 312.887 351.225 312.887 352.453V353.566C312.887 354.181 313.385 354.68 314 354.68H328.547V380.434Z" fill="black"></path>
    <path d="M312.887 378.133C312.887 378.748 313.385 379.246 314 379.246C314.615 379.246 315.113 378.748 315.113 378.133V374.564C317.89 373.833 320.366 372.338 322.319 370.205C322.591 369.907 322.681 369.484 322.553 369.101L322.224 368.113H323.292C323.69 368.113 324.058 367.9 324.257 367.555C325.558 365.293 326.246 362.715 326.246 360.1V358.094C326.246 357.76 326.096 357.444 325.839 357.233C325.581 357.021 325.242 356.937 324.915 357.002C321.532 357.679 318.465 359.52 316.278 362.188C314.091 364.855 312.887 368.224 312.887 371.673V378.133ZM315.113 371.673C315.113 366.086 318.785 361.18 324.02 359.528V360.1C324.02 362.113 323.541 364.101 322.63 365.887H320.68C320.322 365.887 319.986 366.059 319.777 366.349C319.567 366.639 319.51 367.012 319.624 367.352L320.228 369.167C318.783 370.596 317.042 371.643 315.113 372.247V371.673Z" fill="black"></path>
  </g>
  <rect x="370" y="358" width="150" height="20" rx="4" fill="#F2F2F2"></rect>
  <rect x="540" y="358" width="50" height="20" rx="4" fill="#F2F2F2"></rect>
  <defs>
    <filter id="filter0_d_0_163" x="98" y="196" width="480" height="215" color-interpolation-filters="sRGB">
      <feFlood flood-opacity="0" result="BackgroundImageFix"></feFlood>
      <feColorMatrix in="SourceAlpha" type="matrix" values="0 0 0 0 0 0 0 0 0 0 0 0 0 0 0 0 0 0 127 0" result="hardAlpha"></feColorMatrix>
      <feMorphology radius="30" operator="erode" in="SourceAlpha" result="effect1_dropShadow_0_163"></feMorphology>
      <feOffset dy="40"></feOffset>
      <feGaussianBlur stdDeviation="50"></feGaussianBlur>
      <feComposite in2="hardAlpha" operator="out"></feComposite>
      <feColorMatrix type="matrix" values="0 0 0 0 0 0 0 0 0 0 0 0 0 0 0 0 0 0 0.18 0"></feColorMatrix>
      <feBlend mode="normal" in2="BackgroundImageFix" result="effect1_dropShadow_0_163"></feBlend>
      <feBlend mode="normal" in="SourceGraphic" in2="effect1_dropShadow_0_163" result="shape"></feBlend>
    </filter>
    <filter id="filter1_d_0_163" x="98" y="549" width="480" height="215" color-interpolation-filters="sRGB">
      <feFlood flood-opacity="0" result="BackgroundImageFix"></feFlood>
      <feColorMatrix in="SourceAlpha" type="matrix" values="0 0 0 0 0 0 0 0 0 0 0 0 0 0 0 0 0 0 127 0" result="hardAlpha"></feColorMatrix>
      <feMorphology radius="30" operator="erode" in="SourceAlpha" result="effect1_dropShadow_0_163"></feMorphology>
      <feOffset dy="40"></feOffset>
      <feGaussianBlur stdDeviation="50"></feGaussianBlur>
      <feComposite in2="hardAlpha" operator="out"></feComposite>
      <feColorMatrix type="matrix" values="0 0 0 0 0 0 0 0 0 0 0 0 0 0 0 0 0 0 0.18 0"></feColorMatrix>
      <feBlend mode="normal" in2="BackgroundImageFix" result="effect1_dropShadow_0_163"></feBlend>
      <feBlend mode="normal" in="SourceGraphic" in2="effect1_dropShadow_0_163" result="shape"></feBlend>
    </filter>
    <filter id="filter2_d_0_163" x="492" y="406" width="480" height="215" color-interpolation-filters="sRGB">
      <feFlood flood-opacity="0" result="BackgroundImageFix"></feFlood>
      <feColorMatrix in="SourceAlpha" type="matrix" values="0 0 0 0 0 0 0 0 0 0 0 0 0 0 0 0 0 0 127 0" result="hardAlpha"></feColorMatrix>
      <feMorphology radius="30" operator="erode" in="SourceAlpha" result="effect1_dropShadow_0_163"></feMorphology>
      <feOffset dy="40"></feOffset>
      <feGaussianBlur stdDeviation="50"></feGaussianBlur>
      <feComposite in2="hardAlpha" operator="out"></feComposite>
      <feColorMatrix type="matrix" values="0 0 0 0 0 0 0 0 0 0 0 0 0 0 0 0 0 0 0.18 0"></feColorMatrix>
      <feBlend mode="normal" in2="BackgroundImageFix" result="effect1_dropShadow_0_163"></feBlend>
      <feBlend mode="normal" in="SourceGraphic" in2="effect1_dropShadow_0_163" result="shape"></feBlend>
    </filter>
    <filter id="filter3_d_0_163" x="98" y="96" width="480" height="215" color-interpolation-filters="sRGB">
      <feFlood flood-opacity="0" result="BackgroundImageFix"></feFlood>
      <feColorMatrix in="SourceAlpha" type="matrix" values="0 0 0 0 0 0 0 0 0 0 0 0 0 0 0 0 0 0 127 0" result="hardAlpha"></feColorMatrix>
      <feMorphology radius="30" operator="erode" in="SourceAlpha" result="effect1_dropShadow_0_163"></feMorphology>
      <feOffset dy="40"></feOffset>
      <feGaussianBlur stdDeviation="50"></feGaussianBlur>
      <feComposite in2="hardAlpha" operator="out"></feComposite>
      <feColorMatrix type="matrix" values="0 0 0 0 0 0 0 0 0 0 0 0 0 0 0 0 0 0 0.18 0"></feColorMatrix>
      <feBlend mode="normal" in2="BackgroundImageFix" result="effect1_dropShadow_0_163"></feBlend>
      <feBlend mode="normal" in="SourceGraphic" in2="effect1_dropShadow_0_163" result="shape"></feBlend>
    </filter>
    <filter id="filter4_d_0_163" x="98" y="449" width="480" height="215" color-interpolation-filters="sRGB">
      <feFlood flood-opacity="0" result="BackgroundImageFix"></feFlood>
      <feColorMatrix in="SourceAlpha" type="matrix" values="0 0 0 0 0 0 0 0 0 0 0 0 0 0 0 0 0 0 127 0" result="hardAlpha"></feColorMatrix>
      <feMorphology radius="30" operator="erode" in="SourceAlpha" result="effect1_dropShadow_0_163"></feMorphology>
      <feOffset dy="40"></feOffset>
      <feGaussianBlur stdDeviation="50"></feGaussianBlur>
      <feComposite in2="hardAlpha" operator="out"></feComposite>
      <feColorMatrix type="matrix" values="0 0 0 0 0 0 0 0 0 0 0 0 0 0 0 0 0 0 0.18 0"></feColorMatrix>
      <feBlend mode="normal" in2="BackgroundImageFix" result="effect1_dropShadow_0_163"></feBlend>
      <feBlend mode="normal" in="SourceGraphic" in2="effect1_dropShadow_0_163" result="shape"></feBlend>
    </filter>
    <filter id="filter5_d_0_163" x="206" y="300" width="480" height="215" color-interpolation-filters="sRGB">
      <feFlood flood-opacity="0" result="BackgroundImageFix"></feFlood>
      <feColorMatrix in="SourceAlpha" type="matrix" values="0 0 0 0 0 0 0 0 0 0 0 0 0 0 0 0 0 0 127 0" result="hardAlpha"></feColorMatrix>
      <feMorphology radius="30" operator="erode" in="SourceAlpha" result="effect1_dropShadow_0_163"></feMorphology>
      <feOffset dy="40"></feOffset>
      <feGaussianBlur stdDeviation="50"></feGaussianBlur>
      <feComposite in2="hardAlpha" operator="out"></feComposite>
      <feColorMatrix type="matrix" values="0 0 0 0 0 0 0 0 0 0 0 0 0 0 0 0 0 0 0.18 0"></feColorMatrix>
      <feBlend mode="normal" in2="BackgroundImageFix" result="effect1_dropShadow_0_163"></feBlend>
      <feBlend mode="normal" in="SourceGraphic" in2="effect1_dropShadow_0_163" result="shape"></feBlend>
    </filter>
    <clipPath id="clip0_0_163">
      <rect width="35" height="35" fill="white" transform="translate(190 245)"></rect>
    </clipPath>
    <clipPath id="clip1_0_163">
      <rect width="38.4535" height="38.4535" fill="white" transform="translate(187 597)"></rect>
    </clipPath>
    <clipPath id="clip2_0_163">
      <rect width="38.4535" height="38.4535" fill="white" transform="translate(581 454)"></rect>
    </clipPath>
    <clipPath id="clip3_0_163">
      <rect width="38.4535" height="38.4535" fill="white" transform="translate(187 144)"></rect>
    </clipPath>
    <clipPath id="clip4_0_163">
      <rect width="34" height="34" fill="white" transform="translate(189 499)"></rect>
    </clipPath>
    <clipPath id="clip5_0_163">
      <rect width="38" height="38" fill="white" transform="translate(295 348)"></rect>
    </clipPath>
  </defs>
</svg>
