<?xml version="1.0" encoding="UTF-8"?>
<svg xmlns="http://www.w3.org/2000/svg" width="125" height="18" viewBox="0 0 125 18" fill="none">
  <path d="M99.9264 17.5803V13.6166H95.7725V17.5803H99.9264Z" fill="#E590DF"></path>
  <path d="M119.122 17.5803L112.063 0.326424H108.485L101.354 17.5803H106.228L107.164 15.0855H113.335L114.2 17.5803H119.122ZM112.135 11.5881H108.413L110.238 5.68912H110.286H110.31L112.135 11.5881Z" fill="#E590DF"></path>
  <path d="M125 17.5803V0.326424H120.462V17.5803H125Z" fill="#E590DF"></path>
  <path d="M18.3442 11.1218H13.5901C12.7978 12.8238 11.3091 14.0363 9.31619 14.0363C6.41088 14.0363 4.53804 11.5648 4.53804 8.90674C4.53804 6.2487 6.41088 3.87047 9.29218 3.87047C11.2851 3.87047 12.8938 5.10622 13.5901 6.87824H18.3442C18.1762 5.87565 17.72 4.89637 17.1437 4.05699C15.3669 1.4456 12.5336 0 9.31619 0C4.15387 0 0 3.87047 0 8.93005C0 13.9896 4.20189 17.9067 9.36421 17.9067C13.6621 17.9067 17.3118 15.2021 18.3442 11.1218Z" fill="#001133"></path>
  <path d="M33.7839 11.0984C33.7839 7.13472 30.6865 4.22021 26.6047 4.22021C22.5229 4.22021 19.4255 7.13472 19.4255 11.0984C19.4255 15.0622 22.5229 17.9767 26.6047 17.9767C30.6865 17.9767 33.7839 15.0622 33.7839 11.0984ZM29.7981 11.0984C29.7981 12.8472 28.4535 14.3627 26.6047 14.3627C24.7559 14.3627 23.4113 12.8472 23.4113 11.0984C23.4113 9.34974 24.7559 7.8342 26.6047 7.8342C28.4535 7.8342 29.7981 9.34974 29.7981 11.0984Z" fill="#001133"></path>
  <path d="M47.9027 17.5803V9.48964C47.9027 7.97409 47.6385 6.34197 46.366 5.31606C45.5016 4.61658 44.0849 4.19689 42.9564 4.19689C41.3477 4.19689 40.1712 4.68653 39.3308 6.01554H39.2828V4.6399H35.5611V17.5803H39.5469V10.5389C39.5469 9 39.9791 7.8342 41.8279 7.8342C43.6287 7.8342 43.9169 9.06995 43.9169 10.5155V17.5803H47.9027Z" fill="#001133"></path>
  <path d="M56.9508 7.57772V4.6399H55.0299V0.326425H51.0441V4.6399H49.0753V7.57772H51.0441V17.5803H55.0299V7.57772H56.9508Z" fill="#001133"></path>
  <path d="M71.1397 11.2617C71.1397 7.36788 68.1863 4.19689 64.1045 4.19689C60.1907 4.19689 57.1174 7.39119 57.1174 11.1451C57.1174 14.9223 60.2868 18 64.1765 18C67.1779 18 69.5309 16.1114 70.6835 13.5233H66.6016C65.9533 14.3161 65.257 14.7358 64.1765 14.7358C62.6158 14.7358 61.2952 13.8264 61.0551 12.2876H71.0436C71.1157 11.9378 71.1397 11.6114 71.1397 11.2617ZM67.1539 9.67616H61.1032C61.4153 8.2772 62.6879 7.46114 64.1285 7.46114C65.5692 7.46114 66.8417 8.2772 67.1539 9.67616Z" fill="#001133"></path>
  <path d="M85.2216 17.5803V9.48964C85.2216 7.97409 84.9575 6.34197 83.6849 5.31606C82.8205 4.61658 81.4039 4.19689 80.2754 4.19689C78.6667 4.19689 77.4902 4.68653 76.6498 6.01554H76.6018V4.6399H72.8801V17.5803H76.8659V10.5389C76.8659 9 77.2981 7.8342 79.1469 7.8342C80.9477 7.8342 81.2358 9.06995 81.2358 10.5155V17.5803H85.2216Z" fill="#001133"></path>
  <path d="M94.2698 7.57772V4.6399H92.3489V0.326425H88.3631V4.6399H86.3942V7.57772H88.3631V17.5803H92.3489V7.57772H94.2698Z" fill="#001133"></path>
</svg>
