<?xml version="1.0" encoding="UTF-8"?>
<svg xmlns="http://www.w3.org/2000/svg" width="100" height="106" viewBox="0 0 100 106" fill="none">
  <path d="M36.3447 5.14944L76.1263 71.8208L18.6319 80.7398L36.3447 5.14944Z" fill="#C0FAEA"></path>
  <path d="M82.8347 33.5765L47.1102 87.0723L18.8131 39.8437L82.8347 33.5765Z" fill="#FBC8F7"></path>
  <g clip-path="url(#clip0_0_299)">
    <path d="M67.6758 23.5411H45.6051C45.6051 23.5411 45.6051 23.5411 45.6047 23.5411C42.3859 23.5415 39.6484 26.1435 39.6484 29.4005V47.0763H29.3945H29.3941C26.9711 47.0767 25 49.0477 25 51.4708V63.1896C25 63.9987 25.6557 64.6544 26.4648 64.6544H30.8594V67.6818C30.8594 70.9128 33.4877 73.5411 36.7188 73.5411H64.6484C66.6046 73.5411 68.457 72.7835 69.8643 71.4076C71.2868 70.0171 72.0703 68.1739 72.0703 66.2169V32.3302H73.5352C74.3443 32.3302 75 31.6745 75 30.8654C75 26.8267 71.7144 23.5411 67.6758 23.5411ZM67.6758 26.4708C69.5858 26.4708 71.2147 27.6953 71.8193 29.4005H51.4648C51.4648 28.3339 51.1784 27.3329 50.6786 26.4708H67.6758ZM27.9297 51.4708C27.9297 50.6633 28.587 50.006 29.3945 50.006C30.2021 50.006 30.8594 50.6633 30.8594 51.4708V61.7247H27.9297V51.4708ZM33.7891 67.6818V51.4708C33.7891 50.9574 33.6998 50.4645 33.5373 50.006H39.6484V67.6818C39.6484 69.2973 38.3343 70.6115 36.7188 70.6115C35.1032 70.6115 33.7891 69.2973 33.7891 67.6818ZM69.1406 66.2169C69.1406 68.5992 67.0834 70.6115 64.6484 70.6115H41.79C42.2901 69.7489 42.5781 68.7487 42.5781 67.6818C42.5781 66.6018 42.5781 30.4801 42.5781 29.4005C42.5781 27.8125 43.9644 26.4708 45.6055 26.4708C47.221 26.4708 48.5352 27.785 48.5352 29.4005V30.8654C48.5352 31.6745 49.1909 32.3302 50 32.3302H69.1406V66.2169Z" fill="black"></path>
    <path d="M48.5352 63.1896C48.5352 63.9987 49.1909 64.6544 50 64.6544C50.8091 64.6544 51.4648 63.9987 51.4648 63.1896V58.4937C55.1178 57.5316 58.3759 55.5644 60.9455 52.7579C61.3045 52.3657 61.4227 51.8099 61.2545 51.3053L60.8215 50.006H62.2265C62.7506 50.006 63.2347 49.726 63.496 49.2716C65.2084 46.295 66.1133 42.903 66.1133 39.4618V36.8224C66.1133 36.3837 65.9164 35.9679 65.5773 35.6894C65.2378 35.4113 64.7915 35.2999 64.3612 35.3858C59.9106 36.2761 55.875 38.6992 52.9976 42.2091C50.1198 45.7194 48.5352 50.1517 48.5352 54.6904V63.1896ZM51.4648 54.6904C51.4648 47.3391 56.2965 40.8831 63.1836 38.7091V39.4618C63.1836 42.1115 62.5534 44.7264 61.3548 47.0763H58.7891C58.3183 47.0763 57.8758 47.3025 57.6008 47.6843C57.3254 48.0666 57.2506 48.5575 57.3994 49.0042L58.1951 51.3918C56.2935 53.2721 54.0024 54.6504 51.4648 55.4453V54.6904Z" fill="black"></path>
  </g>
  <defs>
    <clipPath id="clip0_0_299">
      <rect width="50" height="50" fill="white" transform="translate(25 23.5411)"></rect>
    </clipPath>
  </defs>
</svg>
